<svg width="42" height="42" viewBox="0 0 42 42" fill="none" xmlns="http://www.w3.org/2000/svg">
<rect x="1" y="1" width="40" height="40" rx="10" stroke="#D24A43" stroke-width="2"/>
<path d="M24.5184 14.1711L23.5542 15.1265C23.3206 15.3578 23.3245 15.7342 23.5627 15.9608L27.5283 19.7343H10.5895C10.264 19.7343 10 19.9959 10 20.3185V21.6815C10 22.0041 10.264 22.2657 10.5895 22.2657H27.5283L23.5627 26.0392C23.3245 26.2658 23.3206 26.6422 23.5542 26.8735L24.5184 27.8289C24.7486 28.057 25.1219 28.057 25.3522 27.8289L31.8273 21.413C32.0576 21.1849 32.0576 20.8151 31.8273 20.5869L25.3521 14.1711C25.1219 13.943 24.7486 13.943 24.5184 14.1711Z" fill="white"/>
</svg>
