<svg width="42" height="42" viewBox="0 0 42 42" fill="none" xmlns="http://www.w3.org/2000/svg">
<rect x="1" y="1" width="40" height="40" rx="10" stroke="#D24A43" stroke-width="2"/>
<path d="M17.4816 27.8289L18.4458 26.8735C18.6794 26.6422 18.6755 26.2658 18.4373 26.0392L14.4717 22.2657H31.4105C31.736 22.2657 32 22.0041 32 21.6815V20.3185C32 19.9959 31.736 19.7343 31.4105 19.7343H14.4717L18.4373 15.9608C18.6755 15.7342 18.6794 15.3578 18.4458 15.1265L17.4816 14.1711C17.2514 13.943 16.8781 13.943 16.6478 14.1711L10.1727 20.587C9.94245 20.8151 9.94245 21.1849 10.1727 21.4131L16.6479 27.8289C16.8781 28.057 17.2514 28.057 17.4816 27.8289Z" fill="white"/>
</svg>
